<svg xmlns="http://www.w3.org/2000/svg" width="397.124" height="664.989" viewBox="0 0 397.124 664.989"><g transform="translate(-151.88 35.719)"><path d="M235.25,35.51c-13.21,0-17.34,20.64-17.34,28.89,0,14,14.86,71.82,28.89,71.82s28.9-57,28.9-63.56S258.36,35.51,235.25,35.51Z" fill="#ffbb9a"/><path d="M204.32,434.35c-2.47,6.61-4.15,70.43,3.28,105.92-5,25.59-24.77,109-24.77,109H362l18.16-72.64s.28-165.48-6.54-160.5-19.87,40.07-22.23,47.94C342.26,462.29,204.32,434.35,204.32,434.35Z" transform="translate(12 -20)" fill="#ffbb9a"/><g transform="matrix(0.978, 0.208, -0.208, 0.978, 20.003, -90.087)"><path d="M656.111,267.487V320.6a1.85,1.85,0,0,1-1.838,1.852h-1.308V599.12a28.764,28.764,0,0,1-28.654,28.868H452.7a28.757,28.757,0,0,1-28.648-28.865V332.152h-.947a1.3,1.3,0,0,1-1.3-1.3V300.624a1.305,1.305,0,0,1,1.3-1.31h.947V287.929H423.1a1.367,1.367,0,0,1-1.357-1.375V256.74a1.365,1.365,0,0,1,1.356-1.367h.955V239.832h-.971a1.2,1.2,0,0,1-.852-.355,1.216,1.216,0,0,1-.352-.858v-16.27a1.214,1.214,0,0,1,1.2-1.221h.971V188.185a28.755,28.755,0,0,1,28.647-28.86H624.309a28.762,28.762,0,0,1,28.656,28.86v77.45h1.308A1.85,1.85,0,0,1,656.111,267.487Z" transform="translate(-160.25 -159.325)" fill="#3f3d56"/><rect width="39.823" height="8.086" rx="2.542" transform="translate(352.907 18.307)" fill="#e6e8ec"/><circle cx="4.587" cy="4.587" r="4.587" transform="translate(395.281 17.14)" fill="#e6e8ec"/><path d="M635.1,197.5V599.819a18.3,18.3,0,0,1-6.125,13.751,17.057,17.057,0,0,1-11.3,4.318H460.189a16.88,16.88,0,0,1-8.049-2.035,16.167,16.167,0,0,1-1.693-1.038,18.285,18.285,0,0,1-7.687-15V197.5c0-9.985,7.8-18.078,17.43-18.077h23.569v3.137a14.625,14.625,0,0,0,14.351,14.885H578.2a14.625,14.625,0,0,0,14.351-14.885v-3.137h25.116c9.627,0,17.432,8.092,17.429,18.077Z" transform="translate(-160.25 -159.325)" fill="#ffd42a"/><path d="M635.1,634.005v72.16c.005,6.634-2.235,12.935-6.125,17.23a15.283,15.283,0,0,1-11.3,5.41H460.189a14.267,14.267,0,0,1-8.049-2.55,16.03,16.03,0,0,1-1.693-1.3c-4.806-4.214-7.687-11.256-7.687-18.79v-72.13c54.686-63.882,137.638-63.895,192.336-.03Z" transform="translate(-160.25 -270.242)" fill="#fff" opacity="0.3"/><path d="M622.927,726.235a13.406,13.406,0,0,1-7.8,2.57H462.739a13.5,13.5,0,0,1-7.789-2.55c14.107-45.564,47.24-75.256,83.984-75.26s69.887,29.688,84,75.25Z" transform="translate(-160.25 -270.242)" fill="#fff" opacity="0.3"/><path d="M636,727.445A13.562,13.562,0,0,1,629.658,729H505.82a13.666,13.666,0,0,1-6.33-1.543A73.923,73.923,0,0,1,636,727.451Z" transform="translate(-189.061 -270.242)" fill="#fff" opacity="0.3"/><path d="M579.016,374.575c-15.812,0-33.166-3.909-46.713-17.1-18.861-18.365-42.1-17.385-58.272-13.328a108.223,108.223,0,0,0-31.021,13.415l-.712-1.773a109.622,109.622,0,0,1,31.4-13.6c16.491-4.144,40.2-5.134,59.529,13.682,36.2,35.25,101.025,3.59,101.674,3.268l.552,1.867a152.357,152.357,0,0,1-37.516,11.857A111.1,111.1,0,0,1,579.016,374.575Z" transform="translate(-160.25 -196.056)" fill="#fff"/><path d="M442.75,356.675s53.1-16.712,90.037,6.17,102.349-.17,102.349-.17" transform="translate(-160.25 -197.424)" fill="#fff" opacity="0.3"/><path d="M492.821,382.636a78.9,78.9,0,0,1-19.122-2.479,109.619,109.619,0,0,1-31.4-13.595l.712-1.773A108.223,108.223,0,0,0,474.031,378.2c16.172,4.057,39.41,5.037,58.272-13.328,19.307-18.8,46.352-18.747,65.635-15.392a152.357,152.357,0,0,1,37.516,11.857l-.552,1.867c-.651-.324-65.472-31.983-101.674,3.268C520.556,378.814,505.994,382.636,492.821,382.636Z" transform="translate(-160.25 -197.697)" fill="#fff" opacity="0.3"/><path d="M493.093,374.583c-26.672,0-50.358-12.425-50.714-12.615l.587-1.85c.527.282,53.206,27.9,89.41.064,36.831-28.32,102.353-3.041,103.01-2.782l-.447,1.914c-.651-.256-65.531-25.281-101.779,2.589C520.791,371.415,506.56,374.583,493.093,374.583Z" transform="translate(-160.25 -197.005)" fill="#fff" opacity="0.3"/><path d="M442.76,359.505s53.088,22.882,90.024,0S635.1,357.343,635.1,357.343" transform="translate(-160.25 -196.933)" fill="#fff" opacity="0.3"/><path d="M442.76,356.675s53.088-36,90.024,0,102.313,3.4,102.313,3.4" transform="translate(-160.25 -196.121)" fill="#fff" opacity="0.3"/><circle cx="11" cy="11" r="11" transform="translate(367.887 430.758)" fill="#fff"/></g><path d="M182.83,649.27H362l18.16-72.64S490.72,480,501.45,462.68,537.36,344.23,537,334.74c-.29-6.6-120.52-108.14-123.82-112.27s-61.36,54,35.22,120.9c-.83,8.25-.78,44.69-.78,44.69Z" transform="translate(12 -20)" fill="#ffbb9a"/><path d="M219.57,147c-17.34,0-28.9,13.2-28.9,27.24,0,46.22,26.42,84.19,38,84.19,24.76,0,33.84-13.21,33.84-22.29C262.49,229.49,259.19,147,219.57,147Z" fill="#ffbb9a"/><path d="M210.49,268.29c4.95,4.95,42.92,45.4,42.92,73.46,0,19-4.13,33.84-38.8,33.84-16.51,0-62.73-65.21-62.73-91.62,0-14.86,9.08-49.53,34.67-49.53,7.43,0,23.94,13.21,26.41,16.51a92.463,92.463,0,0,0,8.08,7.43C220,263.75,214.26,292,214.26,292" fill="#ffbb9a"/></g></svg>