<?xml version="1.0" standalone="no"?>
<!DOCTYPE svg PUBLIC "-//W3C//DTD SVG 20010904//EN"
 "http://www.w3.org/TR/2001/REC-SVG-20010904/DTD/svg10.dtd">
<svg version="1.0" xmlns="http://www.w3.org/2000/svg"
 width="636.000000pt" height="636.000000pt" viewBox="0 0 636.000000 636.000000"
 preserveAspectRatio="xMidYMid meet">
<metadata>
Created by potrace 1.11, written by Peter Selinger 2001-2013
</metadata>
<g transform="translate(0.000000,636.000000) scale(0.100000,-0.100000)"
fill="#000000" stroke="none">
<path d="M264 5949 l1 -414 234 -2 c221 -1 302 -5 361 -18 14 -2 34 -7 45 -9
11 -2 40 -12 65 -21 25 -9 50 -17 55 -18 6 -2 20 -9 33 -15 12 -7 22 -10 22
-8 0 8 120 -64 175 -105 57 -42 127 -109 167 -160 55 -69 78 -103 78 -116 0
-7 4 -13 8 -13 10 0 62 -113 85 -185 63 -192 57 -459 -13 -640 -6 -16 -11 -32
-11 -35 -1 -7 -60 -117 -84 -155 -121 -191 -340 -349 -561 -405 -110 -28 -153
-32 -421 -32 l-243 0 0 -419 c0 -230 3 -419 8 -419 4 -1 147 -2 317 -4 171 -1
315 -5 320 -8 6 -3 33 -8 60 -12 55 -7 72 -10 95 -18 8 -3 35 -11 60 -18 159
-43 365 -189 481 -341 81 -104 99 -130 99 -138 0 -5 4 -11 8 -13 9 -3 117
-179 116 -188 0 -3 11 -25 26 -50 25 -43 174 -340 175 -350 1 -3 34 -72 74
-155 40 -82 86 -177 101 -210 15 -33 55 -118 89 -189 33 -70 61 -130 61 -132
0 -1 21 -47 46 -101 62 -131 97 -207 99 -213 0 -3 15 -34 31 -70 17 -36 53
-114 80 -175 27 -60 53 -113 59 -117 5 -4 7 -8 3 -8 -4 0 96 -235 106 -247 1
-1 15 4 31 12 17 7 53 24 80 36 28 12 82 36 120 54 39 17 174 78 300 135 127
57 231 104 233 105 2 2 -33 82 -78 180 -44 97 -80 178 -80 180 0 2 -18 41 -39
87 -74 158 -111 239 -111 242 0 2 -24 55 -54 117 -29 63 -64 137 -76 164 -12
28 -47 101 -76 163 -30 62 -54 114 -54 116 0 5 -64 140 -207 434 -51 107 -93
198 -93 203 0 5 -4 9 -10 9 -5 0 -10 7 -10 15 0 9 -10 32 -23 53 -13 20 -40
71 -62 112 -21 41 -42 77 -47 78 -4 2 -8 7 -8 12 0 11 -63 114 -72 118 -5 2
-8 10 -8 18 0 8 -3 14 -7 14 -5 0 -15 12 -24 28 -26 46 -173 223 -245 296 -64
64 -210 191 -263 228 l-23 16 74 74 c217 216 374 485 457 781 17 59 33 124 36
145 3 21 7 49 10 62 26 133 26 378 1 545 -18 119 -60 275 -105 390 -22 56
-136 275 -143 275 -4 0 -8 5 -8 11 0 6 -14 31 -32 57 -220 321 -556 578 -910
696 -76 26 -235 66 -280 70 -24 3 -54 8 -68 12 -14 3 -162 8 -331 11 l-305 5
0 -413z"/>
<path d="M3899 6350 c-1 -3 -2 -188 -3 -412 l-1 -408 25 -1 c14 0 133 -2 265
-3 132 -2 249 -6 260 -9 11 -2 40 -8 64 -12 84 -14 311 -106 311 -127 0 -4 5
-8 11 -8 14 0 135 -97 179 -143 40 -41 111 -139 143 -198 28 -49 76 -166 82
-196 2 -10 4 -18 5 -18 2 0 5 -13 20 -95 11 -58 14 -223 6 -290 -5 -41 -17
-104 -23 -120 -3 -8 -8 -23 -10 -34 -2 -10 -10 -33 -17 -50 -8 -17 -18 -42
-22 -56 -4 -14 -18 -42 -30 -62 -13 -21 -24 -40 -24 -43 0 -28 -215 -275 -240
-275 -4 0 -20 -11 -36 -25 -63 -54 -263 -138 -384 -161 -19 -3 -154 -8 -298
-9 -145 -2 -269 -6 -276 -8 -10 -4 -13 -98 -13 -414 l-1 -409 237 -1 c216 0
269 -3 371 -19 52 -8 128 -33 188 -60 29 -13 55 -24 58 -24 19 0 179 -117 231
-168 203 -201 297 -439 289 -727 -4 -138 -22 -226 -73 -352 -24 -59 -106 -197
-139 -233 -72 -78 -116 -120 -124 -120 -5 0 -10 -4 -10 -9 0 -14 -134 -99
-207 -133 -66 -30 -168 -63 -228 -74 -68 -12 -121 -15 -352 -16 l-242 -1 -1
-414 0 -414 282 2 c156 2 308 7 338 11 131 20 138 21 235 44 39 9 82 23 97 31
15 7 30 13 33 13 16 -2 93 26 108 38 9 8 17 12 17 8 0 -14 265 129 298 160 6
7 21 16 32 19 11 3 20 10 20 15 0 5 11 15 24 22 50 27 189 156 298 276 26 29
45 52 43 52 -2 0 18 30 46 68 27 37 53 72 57 77 76 105 201 407 237 576 63
291 52 598 -29 884 -2 6 -6 24 -11 40 -4 17 -11 35 -16 40 -4 6 -8 15 -9 20
-20 90 -142 324 -239 455 -78 105 -84 113 -197 225 l-102 101 93 90 c98 95
199 215 256 304 74 114 151 259 156 294 2 11 8 25 13 31 26 31 102 303 104
373 1 12 3 22 6 22 13 0 21 386 9 470 -17 118 -19 136 -25 160 -30 129 -54
213 -65 225 -5 5 -9 15 -9 22 0 55 -200 419 -276 503 -8 8 -35 40 -61 70 -151
172 -342 320 -550 424 -50 25 -94 46 -97 46 -4 0 -25 9 -49 19 -35 17 -139 51
-197 66 -73 20 -180 38 -295 52 -62 7 -565 10 -566 3z"/>
</g>
</svg>
